<?xml version="1.0" encoding="UTF-8"?>
<svg width="770px" height="428px" viewBox="0 0 770 428" version="1.1" xmlns="http://www.w3.org/2000/svg" xmlns:xlink="http://www.w3.org/1999/xlink">
    <!-- Generator: Sketch 51.3 (57544) - http://www.bohemiancoding.com/sketch -->
    <title>Solutions_01</title>
    <desc>Created with Sketch.</desc>
    <defs></defs>
    <g id="UI-Design" stroke="none" stroke-width="1" fill="none" fill-rule="evenodd">
        <g id="Illustrations" transform="translate(-131.000000, -117.000000)">
            <g id="Solutions_01" transform="translate(131.000000, 117.000000)">
                <g id="Group" transform="translate(0.000000, 396.000000)" fill="#E6E7E8" fill-rule="nonzero">
                    <path d="M769.465278,26.9738667 L769.465278,15.1296 C769.465278,11.9370667 727.888486,0.8224 722.175514,0.8224 L48.2233889,0.8224 C42.4954444,0.8224 0.919722222,11.9370667 0.919722222,15.1296 L0.919722222,26.9738667 L769.465278,26.9738667 Z" id="Shape"></path>
                    <path d="M0.919722222,17.2661333 C0.919722222,14.0608 6.03701389,11.4581333 12.3713333,11.4581333 L758.014736,11.4581333 C764.345847,11.4581333 769.465278,14.0608 769.465278,17.2661333 L769.465278,25.9754667 C769.465278,29.1808 764.345847,31.7706667 758.014736,31.7706667 L12.3713333,31.7706667 C6.03701389,31.7706667 0.919722222,29.1808 0.919722222,25.9754667 L0.919722222,17.2661333 Z" id="Shape"></path>
                </g>
                <g id="Group" fill-rule="nonzero">
                    <path d="M700.360065,377.938446 L700.360065,12.4300108 C700.360065,5.572 694.80273,0 687.95125,0 L81.3995591,0 C74.5427316,0 68.988605,5.572 68.988605,12.4300108 L68.988605,377.938446 L700.360065,377.938446 Z" id="Shape" fill="#223559"></path>
                    <rect id="Rectangle-path" fill="#FFFFFF" x="88.2371349" y="19.7202581" width="592.430541" height="320.808328"></rect>
                    <g transform="translate(0.000000, 365.833333)" fill="#223559" id="Shape">
                        <path d="M1.31981363,5.17969892 L3.02787065,17.7273978 C3.02787065,20.929586 41.9473992,31.108543 47.6598178,31.108543 L721.672809,31.108543 C727.400202,31.108543 767.450235,20.2009892 767.450235,16.9966613 L767.216006,5.51350538 L1.31981363,5.17969892 Z"></path>
                        <path d="M768.980748,14.6150806 C768.980748,17.8322473 763.861925,20.4374355 757.527033,20.4374355 L11.8184284,20.4374355 C5.48567594,20.4374355 0.367922114,17.8311774 0.367922114,14.6150806 L0.367922114,5.8794086 C0.367922114,2.66438172 5.48567594,0.0666827957 11.8184284,0.0666827957 L757.528103,0.0666827957 C763.862994,0.0666827957 768.981818,2.66438172 768.981818,5.8794086 L768.981818,14.6150806 L768.980748,14.6150806 Z"></path>
                    </g>
                    <path d="M461.536901,368.057989 L307.8107,368.057989 C306.199971,368.057989 304.861975,367.283387 304.044846,366.183538 L304.044846,370.500554 C304.044846,373.040478 306.087669,375.083973 308.612855,375.083973 L460.731537,375.083973 C463.255654,375.083973 465.300616,373.040478 465.300616,370.500554 L465.300616,366.183538 C464.471722,367.283387 463.131587,368.057989 461.536901,368.057989 Z" id="Shape" fill="#FFFFFF"></path>
                </g>
                <path d="M202,60.498395 C202,67.9554155 198.527194,74 189.777902,74 L128.218894,74 C119.469602,74 116,67.9554155 116,60.498395 C116,53.0445845 119.47067,47 128.218894,47 L189.777902,47 C198.527194,47 202,53.0445845 202,60.498395 Z" id="Shape" fill="#E55A56" fill-rule="nonzero" opacity="0.8"></path>
                <path d="M293,60.498395 C293,67.9554155 289.525015,74 280.778818,74 L219.219046,74 C210.467509,74 207,67.9554155 207,60.498395 C207,53.0445845 210.468577,47 219.219046,47 L280.778818,47 C289.525015,47 293,53.0445845 293,60.498395 Z" id="Shape" fill="#E55A56" fill-rule="nonzero"></path>
                <path d="M293,60.5460426 C293,53.0659211 289.521941,47 280.778205,47 L219.218591,47 C210.47272,47 207,53.0659211 207,60.5460426 L207,88 L292.846226,88 L293,60.5460426 Z" id="Shape" fill="#E55A56" fill-rule="nonzero"></path>
                <path d="M475,60.498395 C475,67.9554155 471.53138,74 462.779734,74 L401.225605,74 C392.478232,74 389,67.9554155 389,60.498395 C389,53.0445845 392.477164,47 401.225605,47 L462.779734,47 C471.530312,47 475,53.0445845 475,60.498395 Z" id="Shape" fill="#E55A56" fill-rule="nonzero" opacity="0.8"></path>
                <path d="M566,60.498395 C566,67.9554155 562.526169,74 553.776986,74 L492.221946,74 C483.473831,74 480,67.9554155 480,60.498395 C480,53.0445845 483.473831,47 492.221946,47 L553.776986,47 C562.526169,47 566,53.0445845 566,60.498395 Z" id="Shape" fill="#E55A56" fill-rule="nonzero" opacity="0.8"></path>
                <path d="M384,60.498395 C384,67.9554155 380.531337,74 371.78065,74 L310.224689,74 C301.478275,74 298,67.9554155 298,60.498395 C298,53.0445845 301.478275,47 310.224689,47 L371.78065,47 C380.531337,47 384,53.0445845 384,60.498395 Z" id="Shape" fill="#E55A56" fill-rule="nonzero" opacity="0.8"></path>
                <path d="M657,60.498395 C657,67.9554155 653.526126,74 644.781106,74 L583.219962,74 C574.47601,74 571,67.9554155 571,60.498395 C571,53.0445845 574.47601,47 583.219962,47 L644.781106,47 C653.526126,47 657,53.0445845 657,60.498395 Z" id="Shape" fill="#E55A56" fill-rule="nonzero" opacity="0.8"></path>
                <path d="M655.937991,303.50742 C655.937991,310.947403 652.462298,316.978639 643.70197,316.978639 L610.734739,316.963687 L589.955419,316.963687 L158.74498,316.963687 L127.256335,317 C118.500283,317 115.022451,310.968764 115.022451,303.527713 L115,303.52344 L115,94.5342339 L115.022451,94.4744236 C115.022451,87.0355079 118.500283,81 127.256335,81 L161.710705,81.2210848 L588.467211,81.2210848 L610.73367,81.2210848 L643.763979,81.2477858 C652.522169,81.2477858 656,87.2832937 656,94.7222094" id="Shape" fill="#E55A56" fill-rule="nonzero"></path>
                <circle id="Oval" fill="#FFFFFF" fill-rule="nonzero" cx="138.5" cy="60.5" r="7.5"></circle>
                <polygon id="Shape" fill="#223559" fill-rule="nonzero" points="137.664452 58.2411419 136.284607 58.5885813 136 57.5954669 138.057586 57 139 57 139 64 137.664452 64"></polygon>
                <circle id="Oval" fill="#FFFFFF" fill-rule="nonzero" cx="315.5" cy="60.5" r="7.5"></circle>
                <path d="M313,63.6161057 L313.837934,62.7173697 C314.325907,63.3797756 314.871057,63.7513137 315.631112,63.7513137 C316.304416,63.7513137 316.810134,63.2797898 316.810134,62.5605738 L316.810134,62.5378497 C316.810134,61.7629598 316.195978,61.3243857 315.240733,61.3243857 L314.685726,61.3243857 L314.490536,60.4597358 L316.333005,58.202102 L313.379535,58.202102 L313.379535,57 L317.892547,57 L317.892547,58.033944 L315.991916,60.2813521 C317.025039,60.438148 318,61.0346542 318,62.4946741 L318,62.5173981 C318,63.966056 317.025039,65 315.612382,65 C314.423502,64.9977276 313.57571,64.4250817 313,63.6161057 Z" id="Shape" fill="#223559" fill-rule="nonzero"></path>
                <circle id="Oval" fill="#FFFFFF" fill-rule="nonzero" cx="400.5" cy="60.5" r="7.5"></circle>
                <path d="M400.798399,62.4413199 L397.23293,62.4413199 L397,61.5675753 L400.929167,57 L401.989613,57 L401.989613,61.4380201 L403,61.4380201 L403,62.4413199 L401.989613,62.4413199 L401.989613,64 L400.797378,64 L400.797378,62.4413199 L400.798399,62.4413199 Z M400.798399,61.4380201 L400.798399,58.687231 L398.475226,61.4380201 L400.798399,61.4380201 Z" id="Shape" fill="#223559" fill-rule="nonzero"></path>
                <circle id="Oval" fill="#FFFFFF" fill-rule="nonzero" cx="494.5" cy="60.5" r="7.5"></circle>
                <path d="M491,63.7965909 L491.735986,62.7965909 C492.27891,63.3806818 492.851235,63.7409091 493.4804,63.7409091 C494.293806,63.7409091 494.826931,63.2011364 494.826931,62.3818182 L494.826931,62.3590909 C494.826931,61.5613636 494.245786,61.0556818 493.421599,61.0556818 C492.937475,61.0556818 492.519992,61.2136364 492.172089,61.4045455 L491.455704,60.8545455 L491.648765,57 L495.700118,57 L495.700118,58.225 L492.675813,58.225 L492.569973,60.0681818 C492.889455,59.9329545 493.190318,59.8431818 493.646021,59.8431818 C494.964132,59.8431818 496,60.6522727 496,62.3147727 L496,62.3375 C496,63.9443182 494.992552,65 493.4902,65 C492.454332,64.9988636 491.639945,64.5159091 491,63.7965909 Z" id="Shape" fill="#223559" fill-rule="nonzero"></path>
                <circle id="Oval" fill="#FFFFFF" fill-rule="nonzero" cx="584.5" cy="60.5" r="7.5"></circle>
                <path d="M581.944944,64.1931834 C581.35618,63.596452 581,62.7896354 581,61.231876 L581,61.2095265 C581,58.8449504 582.133708,57 584.333708,57 C585.34382,57 586.033708,57.3207152 586.710112,57.8615728 L585.977528,58.9108814 C585.433708,58.4918285 584.967416,58.2370443 584.288764,58.2370443 C583.133708,58.2370443 582.488764,59.2751781 582.422472,60.6899008 C582.833708,60.2931974 583.367416,59.9166085 584.277528,59.9166085 C585.788764,59.9166085 587,60.8005308 587,62.3471155 L587,62.369465 C587,63.9059925 585.744944,65 584.111236,65 C583.15618,65 582.467416,64.7016343 581.944944,64.1931834 Z M585.633708,62.4253387 L585.633708,62.4029892 C585.633708,61.6296969 585.011236,61.055315 584.044944,61.055315 C583.079775,61.055315 582.468539,61.6743959 582.468539,62.414164 L582.468539,62.4365135 C582.468539,63.2209806 583.101124,63.8288867 584.079775,63.8288867 C585.044944,63.8288867 585.633708,63.2209806 585.633708,62.4253387 Z" id="Shape" fill="#223559" fill-rule="nonzero"></path>
                <g id="Group" transform="translate(149.000000, 57.000000)" fill="#FFFFFF" fill-rule="nonzero">
                    <path d="M0.759028571,0.5175 L3.48751429,0.5175 C5.7868,0.5175 7.37462857,2.197125 7.37462857,4.3875 L7.37462857,4.41 C7.37462857,6.600375 5.7868,8.3025 3.48751429,8.3025 L0.759028571,8.3025 L0.759028571,0.5175 Z M3.48751429,7.056 C5.0246,7.056 6.02677143,5.954625 6.02677143,4.431375 L6.02677143,4.40775 C6.02677143,2.8845 5.0246,1.76175 3.48751429,1.76175 L2.04557143,1.76175 L2.04557143,7.054875 L3.48751429,7.054875 L3.48751429,7.056 Z" id="Shape"></path>
                    <path d="M11.5492857,0.462375 L12.7385714,0.462375 L15.9565143,8.301375 L14.5991429,8.301375 L13.8559714,6.4215 L10.397,6.4215 L9.64642857,8.301375 L8.32922857,8.301375 L11.5492857,0.462375 Z M13.3866,5.209875 L12.1233143,2.09475 L10.8695429,5.209875 L13.3866,5.209875 Z" id="Shape"></path>
                    <polygon id="Shape" points="18.5962 1.785375 16.2757714 1.785375 16.2757714 0.5175 22.2105714 0.5175 22.2105714 1.785375 19.8901429 1.785375 19.8901429 8.301375 18.5962 8.301375 18.5962 1.785375"></polygon>
                    <polygon id="Shape" points="24.0944 0.5175 29.5186 0.5175 29.5186 1.740375 25.3809429 1.740375 25.3809429 3.765375 29.0481714 3.765375 29.0481714 4.98825 25.3809429 4.98825 25.3809429 7.077375 29.5714571 7.077375 29.5714571 8.301375 24.0933429 8.301375 24.0933429 0.5175"></polygon>
                    <path d="M31.1318,7.1685 L31.9045714,6.188625 C32.6044,6.83325 33.3063429,7.2 34.2144286,7.2 C35.0083429,7.2 35.5083714,6.811875 35.5083714,6.222375 L35.5083714,6.199875 C35.5083714,5.643 35.2176571,5.34375 33.8592286,5.0085 C32.3020571,4.609125 31.4246286,4.11975 31.4246286,2.68425 L31.4246286,2.662875 C31.4246286,1.3275 32.4690857,0.405 33.9216,0.405 C34.9882571,0.405 35.8329143,0.750375 36.5760857,1.38375 L35.8868286,2.41875 C35.2282286,1.895625 34.5696286,1.616625 33.9025714,1.616625 C33.1488286,1.616625 32.7101143,2.028375 32.7101143,2.54025 L32.7101143,2.561625 C32.7101143,3.162375 33.0441714,3.429 34.4459429,3.785625 C35.9925429,4.186125 36.7970286,4.775625 36.7970286,6.064875 L36.7970286,6.087375 C36.7970286,7.54425 35.7198,8.411625 34.1837714,8.411625 C33.0642571,8.41275 32.0102857,8.002125 31.1318,7.1685 Z" id="Shape"></path>
                </g>
                <g id="Group" transform="translate(327.000000, 57.000000)" fill="#FFFFFF" fill-rule="nonzero">
                    <polygon id="Shape" points="0.290976744 0.691875 5.77888372 0.691875 5.77888372 1.913625 1.59288372 1.913625 1.59288372 3.938625 5.30390698 3.938625 5.30390698 5.160375 1.59288372 5.160375 1.59288372 7.250625 5.83237209 7.250625 5.83237209 8.474625 0.290976744 8.474625"></polygon>
                    <polygon id="Shape" points="10.0440465 4.516875 7.45306977 0.691875 8.98711628 0.691875 10.8260465 3.481875 12.6788837 0.691875 14.1690698 0.691875 11.5887907 4.494375 14.2749767 8.47575 12.7398605 8.47575 10.7950233 5.52825 8.83948837 8.47575 7.34609302 8.47575"></polygon>
                    <polygon id="Shape" points="17.9699535 1.958625 15.6228837 1.958625 15.6228837 0.691875 21.6274884 0.691875 21.6274884 1.958625 19.2793488 1.958625 19.2793488 8.47575 17.9688837 8.47575 17.9688837 1.958625"></polygon>
                    <path d="M23.5348837,0.691875 L26.8351163,0.691875 C27.7647442,0.691875 28.4932558,0.981 28.9714419,1.46925 C29.361907,1.89225 29.5833488,2.4705 29.5833488,3.14775 L29.5833488,3.171375 C29.5833488,4.449375 28.8548372,5.21775 27.8171628,5.52825 L29.8176279,8.47575 L28.2857209,8.47575 L26.463907,5.761125 L24.8367907,5.761125 L24.8367907,8.47575 L23.5348837,8.47575 L23.5348837,0.691875 Z M26.739907,4.550625 C27.6706047,4.550625 28.2611163,4.03875 28.2611163,3.249 L28.2611163,3.227625 C28.2611163,2.39175 27.6898605,1.93725 26.7292093,1.93725 L24.8357209,1.93725 L24.8357209,4.550625 L26.739907,4.550625 Z" id="Shape"></path>
                    <path d="M34.3373953,0.635625 L35.5408837,0.635625 L38.7972558,8.47575 L37.4226047,8.47575 L36.6716279,6.595875 L33.1713488,6.595875 L32.411814,8.47575 L31.0788837,8.47575 L34.3373953,0.635625 Z M36.1966512,5.38425 L34.9182791,2.27025 L33.6495349,5.38425 L36.1966512,5.38425 Z" id="Shape"></path>
                    <path d="M39.9750698,7.34175 L40.7570698,6.361875 C41.4652558,7.007625 42.1755814,7.374375 43.0955814,7.374375 C43.897907,7.374375 44.4049767,6.985125 44.4049767,6.395625 L44.4049767,6.37425 C44.4049767,5.817375 44.1097209,5.517 42.7350698,5.182875 C41.1593023,4.7835 40.2713953,4.294125 40.2713953,2.858625 L40.2713953,2.836125 C40.2713953,1.50075 41.3272558,0.579375 42.7971163,0.579375 C43.8765116,0.579375 44.7323256,0.92475 45.4833023,1.557 L44.7868837,2.592 C44.1193488,2.068875 43.4539535,1.789875 42.7778605,1.789875 C42.0151163,1.789875 41.5711628,2.201625 41.5711628,2.7135 L41.5711628,2.734875 C41.5711628,3.335625 41.9102791,3.60225 43.3277209,3.958875 C44.8927907,4.35825 45.7068837,4.948875 45.7068837,6.237 L45.7068837,6.260625 C45.7068837,7.716375 44.6167907,8.58375 43.0613488,8.58375 C41.9306047,8.586 40.8640465,8.175375 39.9750698,7.34175 Z" id="Shape"></path>
                </g>
                <g id="Group" transform="translate(410.000000, 57.000000)" fill="#FFFFFF" fill-rule="nonzero">
                    <path d="M0.382689655,4.374 L0.382689655,4.350375 C0.382689655,2.138625 1.95727586,0.325125 4.19462069,0.325125 C5.55755172,0.325125 6.3827931,0.826875 7.09044828,1.537875 L6.25558621,2.550375 C5.66337931,1.972125 5.03055172,1.582875 4.18393103,1.582875 C2.76862069,1.582875 1.74455172,2.80575 1.74455172,4.329 L1.74455172,4.350375 C1.74455172,5.87475 2.76862069,7.120125 4.18393103,7.120125 C5.09255172,7.120125 5.67406897,6.72975 6.30903448,6.10875 L7.14389655,6.998625 C6.37317241,7.8435 5.52548276,8.377875 4.14331034,8.377875 C1.98827586,8.37675 0.382689655,6.60825 0.382689655,4.374 Z" id="Shape"></path>
                    <path d="M8.39565517,4.941 L8.39565517,0.46125 L9.69658621,0.46125 L9.69658621,4.885875 C9.69658621,6.3315 10.4031724,7.11 11.5672759,7.11 C12.7196207,7.11 13.4262069,6.375375 13.4262069,4.941 L13.4262069,0.46125 L14.7271379,0.46125 L14.7271379,4.87575 C14.7271379,7.198875 13.4796552,8.36775 11.5437586,8.36775 C9.62068966,8.366625 8.39565517,7.19775 8.39565517,4.941 Z" id="Shape"></path>
                    <path d="M16.0163103,7.108875 L16.7977241,6.129 C17.5064483,6.77475 18.2162414,7.140375 19.1344828,7.140375 C19.9362069,7.140375 20.4428966,6.75225 20.4428966,6.16275 L20.4428966,6.1425 C20.4428966,5.585625 20.15,5.28525 18.7763793,4.951125 C17.2017931,4.55175 16.3134828,4.062375 16.3134828,2.628 L16.3134828,2.6055 C16.3134828,1.27125 17.3685517,0.34875 18.8373103,0.34875 C19.9148276,0.34875 20.771069,0.693 21.5225517,1.326375 L20.8234483,2.361375 C20.1574828,1.83825 19.4925862,1.560375 18.817,1.560375 C18.0548276,1.560375 17.6122759,1.972125 17.6122759,2.484 L17.6122759,2.5065 C17.6122759,3.10725 17.949,3.373875 19.3675172,3.729375 C20.9324828,4.129875 21.7448966,4.719375 21.7448966,6.008625 L21.7448966,6.03225 C21.7448966,7.488 20.6556207,8.3565 19.1024138,8.3565 C17.9703793,8.355375 16.9046207,7.943625 16.0163103,7.108875 Z" id="Shape"></path>
                    <polygon id="Shape" points="24.9389655 1.726875 22.5936552 1.726875 22.5936552 0.46125 28.5958966 0.46125 28.5958966 1.726875 26.2473793 1.726875 26.2473793 8.242875 24.9389655 8.242875"></polygon>
                    <path d="M29.2436897,4.374 L29.2436897,4.350375 C29.2436897,2.16 30.8482069,0.325125 33.1208276,0.325125 C35.3913103,0.325125 36.9755172,2.138625 36.9755172,4.329 L36.9755172,4.350375 C36.9755172,6.541875 35.371,8.37675 33.1005172,8.37675 C30.8289655,8.37675 29.2436897,6.564375 29.2436897,4.374 Z M35.6147241,4.374 L35.6147241,4.350375 C35.6147241,2.838375 34.5682069,1.582875 33.1005172,1.582875 C31.6306897,1.582875 30.6066207,2.815875 30.6066207,4.329 L30.6066207,4.350375 C30.6066207,5.8635 31.652069,7.120125 33.1208276,7.120125 C34.5885172,7.120125 35.6147241,5.886 35.6147241,4.374 Z" id="Shape"></path>
                    <polygon id="Shape" points="38.5565172 0.460125 39.9418966 0.460125 42.1931379 4.14 44.4422414 0.460125 45.8265517 0.460125 45.8265517 8.242875 44.5256207 8.242875 44.5256207 2.66175 42.192069 6.3315 42.1482414 6.3315 39.836069 2.683125 39.836069 8.242875 38.5554483 8.242875 38.5554483 0.460125"></polygon>
                    <polygon id="Shape" points="47.7325172 0.460125 53.2163103 0.460125 53.2163103 1.681875 49.0334483 1.681875 49.0334483 3.706875 52.7438276 3.706875 52.7438276 4.92975 49.0334483 4.92975 49.0334483 7.02 53.2718966 7.02 53.2718966 8.242875 47.7325172 8.242875 47.7325172 0.460125"></polygon>
                    <path d="M54.8144138,0.460125 L58.1121724,0.460125 C59.0421724,0.460125 59.7712069,0.748125 60.2479655,1.2375 C60.637069,1.6605 60.8594138,2.23875 60.8594138,2.917125 L60.8594138,2.94075 C60.8594138,4.21875 60.1314483,4.986 59.0945517,5.2965 L61.0913793,8.244 L59.5606207,8.244 L57.7412414,5.5305 L56.1153448,5.5305 L56.1153448,8.244 L54.8144138,8.244 L54.8144138,0.460125 Z M58.0181034,4.31775 C58.9470345,4.31775 59.5381724,3.805875 59.5381724,3.01725 L59.5381724,2.995875 C59.5381724,2.16 58.9673448,1.7055 58.0063448,1.7055 L56.1142759,1.7055 L56.1142759,4.318875 L58.0181034,4.318875 L58.0181034,4.31775 Z" id="Shape"></path>
                </g>
                <g id="Group" transform="translate(504.000000, 56.000000)" fill="#FFFFFF" fill-rule="nonzero">
                    <path d="M0.365588235,4.97333333 L0.365588235,4.95 C0.365588235,2.76555556 1.95411765,0.974444444 4.21235294,0.974444444 C5.58627451,0.974444444 6.42098039,1.46888889 7.1327451,2.17333333 L6.29264706,3.17222222 C5.69303922,2.6 5.05676471,2.21777778 4.20264706,2.21777778 C2.77588235,2.21777778 1.7427451,3.42444444 1.7427451,4.93 L1.7427451,4.95111111 C1.7427451,6.45666667 2.77588235,7.68666667 4.20264706,7.68666667 C5.11931373,7.68666667 5.70382353,7.30111111 6.34441176,6.68777778 L7.18882353,7.56666667 C6.40911765,8.40111111 5.55607843,8.92888889 4.1595098,8.92888889 C1.98647059,8.92666667 0.365588235,7.18 0.365588235,4.97333333 Z" id="Shape"></path>
                    <path d="M8.55843137,4.97333333 L8.55843137,4.95 C8.55843137,2.78666667 10.1782353,0.974444444 12.469902,0.974444444 C14.7615686,0.974444444 16.3598039,2.76555556 16.3598039,4.92888889 L16.3598039,4.95 C16.3598039,7.11333333 14.74,8.92666667 12.4483333,8.92666667 C10.1566667,8.92666667 8.55843137,7.13666667 8.55843137,4.97333333 Z M14.9848039,4.97333333 L14.9848039,4.95 C14.9848039,3.45777778 13.930098,2.21666667 12.4483333,2.21666667 C10.9665686,2.21666667 9.93343137,3.43444444 9.93343137,4.92888889 L9.93343137,4.95 C9.93343137,6.44444444 10.9881373,7.68555556 12.469902,7.68555556 C13.9516667,7.68555556 14.9848039,6.46666667 14.9848039,4.97333333 Z" id="Shape"></path>
                    <polygon id="Shape" points="18.4843137 1.10777778 19.7007843 1.10777778 23.6985294 6.42444444 23.6985294 1.10777778 24.9872549 1.10777778 24.9872549 8.79555556 23.8894118 8.79555556 19.7751961 3.32666667 19.7751961 8.79555556 18.4843137 8.79555556"></polygon>
                    <polygon id="Shape" points="27.4439216 1.10777778 32.9967647 1.10777778 32.9967647 2.33777778 28.7552941 2.33777778 28.7552941 4.43666667 32.5179412 4.43666667 32.5179412 5.66555556 28.7552941 5.66555556 28.7552941 8.79444444 27.4428431 8.79444444 27.4428431 1.10777778"></polygon>
                    <polygon id="Shape" points="35.0479412 1.10777778 36.3603922 1.10777778 36.3603922 8.79555556 35.0479412 8.79555556"></polygon>
                    <path d="M38.8893137,1.10777778 L42.2162745,1.10777778 C43.1534314,1.10777778 43.8878431,1.39444444 44.3709804,1.87666667 C44.762451,2.29333333 44.9867647,2.86444444 44.9867647,3.53444444 L44.9867647,3.55777778 C44.9867647,4.82 44.2512745,5.57888889 43.2051961,5.88555556 L45.2229412,8.79555556 L43.677549,8.79555556 L41.8409804,6.11555556 L40.2006863,6.11555556 L40.2006863,8.79555556 L38.8882353,8.79555556 L38.8882353,1.10777778 L38.8893137,1.10777778 Z M42.1202941,4.91888889 C43.0585294,4.91888889 43.6538235,4.41333333 43.6538235,3.63333333 L43.6538235,3.61111111 C43.6538235,2.78666667 43.0790196,2.33777778 42.1105882,2.33777778 L40.2006863,2.33777778 L40.2006863,4.91888889 L42.1202941,4.91888889 Z" id="Shape"></path>
                    <polygon id="Shape" points="47.1317647 1.10777778 48.5304902 1.10777778 50.8016667 4.74222222 53.0706863 1.10777778 54.465098 1.10777778 54.465098 8.79555556 53.1526471 8.79555556 53.1526471 3.28222222 50.8005882 6.90777778 50.7563725 6.90777778 48.4226471 3.30444444 48.4226471 8.79555556 47.1306863 8.79555556 47.1306863 1.10777778"></polygon>
                </g>
                <g id="Group" transform="translate(596.000000, 57.000000)" fill="#FFFFFF" fill-rule="nonzero">
                    <path d="M0.0198461538,1.0395 L2.95769231,1.0395 C4.69476923,1.0395 5.79,2.07225 5.79,3.641625 L5.79,3.663 C5.79,5.407875 4.44815385,6.32025 2.81015385,6.32025 L1.33046154,6.32025 L1.33046154,8.82225 L0.0198461538,8.82225 L0.0198461538,1.0395 Z M2.85107692,5.086125 C3.84292308,5.086125 4.46107692,4.507875 4.46107692,3.697875 L4.46107692,3.67425 C4.46107692,2.763 3.83107692,2.284875 2.85107692,2.284875 L1.33046154,2.284875 L1.33046154,5.086125 L2.85107692,5.086125 Z" id="Shape"></path>
                    <path d="M9.56461538,0.984375 L10.7750769,0.984375 L14.0532308,8.823375 L12.6704615,8.823375 L11.9155385,6.9435 L8.39076923,6.9435 L7.62723077,8.823375 L6.28538462,8.823375 L9.56461538,0.984375 Z M11.4352308,5.731875 L10.1493846,2.617875 L8.87215385,5.731875 L11.4352308,5.731875 Z" id="Shape"></path>
                    <polygon id="Shape" points="16.8909231 5.754375 13.9304615 1.040625 15.4726154 1.040625 17.5607692 4.487625 19.6683077 1.040625 21.1684615 1.040625 18.2090769 5.72175 18.2090769 8.823375 16.8909231 8.823375 16.8909231 5.754375"></polygon>
                    <polygon id="Shape" points="22.8549231 1.0395 24.2527692 1.0395 26.5186154 4.719375 28.7855385 1.0395 30.1790769 1.0395 30.1790769 8.82225 28.8684615 8.82225 28.8684615 3.24 26.5175385 6.910875 26.4733846 6.910875 24.1429231 3.261375 24.1429231 8.82225 22.8538462 8.82225 22.8538462 1.0395"></polygon>
                    <polygon id="Shape" points="32.6323077 1.0395 38.158 1.0395 38.158 2.26125 33.9429231 2.26125 33.9429231 4.287375 37.6798462 4.287375 37.6798462 5.509125 33.9429231 5.509125 33.9429231 7.599375 38.2118462 7.599375 38.2118462 8.82225 32.6323077 8.82225"></polygon>
                    <polygon id="Shape" points="40.3010769 1.0395 41.5158462 1.0395 45.5069231 6.4215 45.5069231 1.0395 46.796 1.0395 46.796 8.82225 45.6986154 8.82225 41.5912308 3.285 41.5912308 8.82225 40.3010769 8.82225 40.3010769 1.0395"></polygon>
                    <polygon id="Shape" points="51.0810769 2.307375 48.7183077 2.307375 48.7183077 1.040625 54.7630769 1.040625 54.7630769 2.307375 52.4003077 2.307375 52.4003077 8.823375 51.0810769 8.823375 51.0810769 2.307375"></polygon>
                </g>
                <circle id="Oval" fill="#223559" fill-rule="nonzero" cx="225.5" cy="61.5" r="8.5"></circle>
                <path d="M222.001119,63.7703965 L225.335465,61.1717183 C226.664055,60.1451686 227.147586,59.5739517 227.147586,58.7760939 C227.147586,57.9013218 226.4693,57.3947129 225.583946,57.3947129 C224.698593,57.3947129 224.089703,57.8377393 223.34314,58.7248177 L222.138791,57.8633774 C223.065558,56.6717183 223.978894,56 225.708187,56 C227.603134,56 228.903742,57.0644941 228.903742,58.6489289 L228.903742,58.674567 C228.903742,60.0682543 228.101215,60.8291933 226.385353,62.1100729 L224.393028,63.6309253 L229,63.6309253 L229,65 L222,65 L222,63.7703965 L222.001119,63.7703965 Z" id="Shape" fill="#FFFFFF" fill-rule="nonzero"></path>
                <g id="Group" transform="translate(238.000000, 56.000000)" fill="#FFFFFF" fill-rule="nonzero">
                    <path d="M0.883657895,5.3306 L0.883657895,5.3031 C0.883657895,2.5949 2.87431579,0.3762 5.70331579,0.3762 C7.42747368,0.3762 8.46757895,0.9878 9.36310526,1.8601 L8.30789474,3.0976 C7.56018421,2.3903 6.75636842,1.9129 5.68928947,1.9129 C3.90255263,1.9129 2.60781579,3.4111 2.60781579,5.2756 L2.60781579,5.3031 C2.60781579,7.1687 3.90255263,8.6933 5.68928947,8.6933 C6.83836842,8.6933 7.57313158,8.217 8.37478947,7.4547 L9.42784211,8.5437 C8.45247368,9.5777 7.38539474,10.2311 5.6375,10.2311 C2.91315789,10.2311 0.883657895,8.0663 0.883657895,5.3306 Z" id="Shape"></path>
                    <path d="M15.1192895,0.4708 L16.6406053,0.4708 L20.7546316,10.0672 L19.0196842,10.0672 L18.0712895,7.7671 L13.6508421,7.7671 L12.6916579,10.0672 L11.0085,10.0672 L15.1192895,0.4708 Z M17.4681579,6.2821 L15.8540526,2.4717 L14.2507368,6.2821 L17.4681579,6.2821 Z" id="Shape"></path>
                    <path d="M23.0117895,0.539 L27.1786842,0.539 C28.3525789,0.539 29.2750789,0.8932 29.8749737,1.4916 C30.3691316,2.0097 30.6507368,2.717 30.6507368,3.5475 L30.6507368,3.575 C30.6507368,5.1403 29.7282368,6.0797 28.4216316,6.4603 L30.9420526,10.0672 L29.0075,10.0672 L26.7125789,6.7452 L24.6571842,6.7452 L24.6571842,10.0672 L23.0128684,10.0672 L23.0128684,0.539 L23.0117895,0.539 Z M27.0578421,5.2635 C28.2328158,5.2635 28.9805263,4.6365 28.9805263,3.6696 L28.9805263,3.6432 C28.9805263,2.6213 28.2587105,2.0636 27.0448947,2.0636 L24.6561053,2.0636 L24.6561053,5.2635 L27.0578421,5.2635 Z" id="Shape"></path>
                    <path d="M32.6964211,8.6779 L33.6858158,7.48 C34.5791842,8.2709 35.4736316,8.7186 36.6345789,8.7186 C37.6509474,8.7186 38.2918421,8.2423 38.2918421,7.5207 L38.2918421,7.4954 C38.2918421,6.8134 37.9163684,6.4471 36.1814211,6.0379 C34.1918421,5.5473 33.0708158,4.9489 33.0708158,3.1933 L33.0708158,3.1647 C33.0708158,1.5323 34.4043947,0.4015 36.2623421,0.4015 C37.6218158,0.4015 38.7061579,0.8239 39.6545526,1.5994 L38.7708947,2.8655 C37.9293158,2.2253 37.0898947,1.8854 36.2353684,1.8854 C35.2718684,1.8854 34.7118947,2.3892 34.7118947,3.014 L34.7118947,3.0415 C34.7118947,3.7763 35.1391579,4.1019 36.9291316,4.5386 C38.9036053,5.0303 39.9329211,5.7519 39.9329211,7.3304 L39.9329211,7.3568 C39.9329211,9.1399 38.5572632,10.2014 36.5946579,10.2014 C35.1682895,10.2025 33.8185263,9.6987 32.6964211,8.6779 Z" id="Shape"></path>
                </g>
                <g id="Group" transform="translate(182.000000, 135.000000)">
                    <g transform="translate(8.561798, 0.000000)" id="Shape">
                        <path d="M355.589654,83.2185442 C355.589654,83.2185442 354.729194,56.3149388 335.366688,53.9140136 C316.002042,51.5098844 260.049624,46.7763878 260.049624,46.7763878 C260.049624,46.7763878 258.872376,46.2829592 255.678826,44.7407279 C239.966857,32.9155306 213.578326,13.8448367 193.176632,13.9452313 C187.352469,13.9751361 91.6240787,14.4493401 58.407514,14.6148844 C51.3889803,14.6501293 47.1615927,14.6704218 47.1615927,14.6704218 L24.1378483,14.7345034 C24.1378483,14.7345034 25.0293455,18.3369592 26.5330112,20.4431088 C27.3260478,21.549585 30.2873596,23.982551 32.923323,26.0470476 C25.7035871,35.9369796 14.5839522,56.4110612 14.5839522,56.4110612 C14.5839522,56.4110612 13.2472416,62.3225918 13.2761376,68.0034286 C13.3039635,73.6853333 13.4131264,95.4923129 13.4131264,95.4923129 L43.2520618,95.3470612 C46.6414635,95.3289048 49.8521376,93.8785238 52.1263652,91.3665238 C56.9295337,86.0488163 66.9821545,77.1628299 81.0288539,76.302 C101.195098,75.0641565 123.600253,93.2697483 119.857677,119.462048 L265.113927,118.742197 C265.113927,118.742197 263.767584,77.2119592 301.330331,76.5722109 C301.330331,76.5722109 318.966565,73.9993333 330.935958,87.957381 C332.055413,89.2646463 333.673593,90.0432381 335.396654,90.0368299 L355.621761,89.9375034 L355.589654,83.2185442 Z" fill="#FFC711"></path>
                        <path d="M104.595202,132.74083 L106.758126,117.599408 C108.080924,108.34068 104.477478,101.932517 101.219713,98.1858776 C96.2613624,92.4836803 88.7334017,89.0467687 81.8400843,89.4803878 C72.452073,90.0560544 65.3479213,96.4492653 61.9499579,100.211925 C57.1767556,105.479435 50.3861798,108.516905 43.3109242,108.548946 L0.24722191,108.765755 L0.0449494382,68.0696463 C0.0117724719,61.0890204 1.50580618,54.2632585 1.67597191,53.5070952 L2.07944663,51.7256259 L2.95275,50.1182449 C3.29843258,49.4795646 9.45436517,38.1691565 15.7301629,28.0688231 C13.0631629,24.3061633 11.7403652,19.7104422 11.2908708,17.9001361 L7.25291292,1.57961224 L73.4826994,1.33717007 L193.111348,0.743346939 C215.754093,0.743346939 240.847652,17.1194082 262.589267,33.4057551 C262.908194,33.559551 263.195014,33.6951905 263.455079,33.8169456 C274.311438,34.7439932 319.61298,38.6540408 337.000921,40.8103878 C349.932447,42.4156327 359.921924,50.9491701 365.131778,64.8388639 C368.433421,73.6468844 368.785525,81.8877823 368.813351,82.7988095 L368.821913,83.1598027 L368.913952,103.076374 L335.460868,103.238714 C329.812222,103.238714 324.532803,100.800408 320.883337,96.5453878 C315.693817,90.4928776 308.526522,89.5871905 304.715452,89.5871905 C303.694458,89.5871905 303.078008,89.6587483 303.068376,89.6587483 L302.22932,89.7837075 L301.555079,89.7719592 C294.717413,89.8894422 289.613511,91.8129592 285.952272,95.651449 C278.22525,103.753503 278.334413,118.169735 278.337624,118.314986 L278.775346,131.876796 L104.595202,132.74083 Z" fill="#FFFFFF" fill-rule="nonzero"></path>
                    </g>
                    <g transform="translate(260.064607, 62.945578)" id="Shape">
                        <path d="M81.8764719,26.4782041 C69.9530983,10.1769048 49.8264522,13.482449 49.8264522,13.482449 C12.2637051,14.1232653 13.6100478,55.6502993 13.6100478,55.6502993 L13.5993455,55.6502993 L13.5993455,55.6609796 L82.7668989,48.7668639 C84.8506264,48.7540476 86.6057949,47.2128844 86.8701404,45.1483878 L90.1749944,26.9107551 L81.8764719,26.4782041 Z" fill="#927400"></path>
                        <path d="M0.51263764,68.6257619 L0.368157303,42.4441429 L1.61603933,42.4441429 C3.2427809,33.9640068 6.9404073,23.097898 15.2817388,14.3539592 C23.6733708,5.55661905 35.2478511,0.705639456 48.7926152,0.296585034 C49.9377556,0.162013605 51.7956657,0.000741496599 54.1694242,0.000741496599 C67.4723174,0.000741496599 79.5380309,4.88269388 88.2004298,13.5849796 L105.866629,14.5130952 L99.9300927,47.2833741 C98.6747191,55.363 91.8349129,61.5062925 83.6776601,61.9452517 L27.2350787,67.568415 L27.2757472,68.8532517 L14.3367303,68.8532517 L0.51263764,68.6257619 Z M50.0533399,26.6832653 C43.2135337,26.7986122 38.109632,28.7210612 34.4483933,32.560619 C32.1795169,34.9391156 30.5880927,37.859102 29.4707781,40.8079252 L72.8202303,36.4898912 L71.1924185,34.2609184 C66.4427612,27.7737211 59.3150646,26.4109184 54.1704944,26.4109184 C52.7321124,26.4109184 51.8299129,26.5305374 51.8202809,26.5348095 L50.8656404,26.6896735 L50.0533399,26.6832653 Z" fill="#FFFFFF" fill-rule="nonzero"></path>
                    </g>
                    <g transform="translate(47.089888, 75.829932)" id="Shape">
                        <path d="M81.3285169,43.6150272 C85.0710927,17.425932 62.6659382,-0.781795918 42.4996938,0.454979592 C28.2764073,1.3264898 18.1531517,10.4271497 13.4195478,15.7170884 C11.2716067,18.1169456 8.2086236,19.4829524 4.98510674,19.5000408 L1.05738202,19.5181973 L0.367087079,44.0059252 L81.3285169,43.6150272 Z" fill="#927400"></path>
                        <path d="M44.448573,13.5991905 C44.0686433,13.5991905 43.6897837,13.6098707 43.3119944,13.6333673 C33.8405056,14.2111701 26.6988961,20.6983673 23.2880899,24.5122925 C20.8576096,27.2250816 17.8759635,29.3344354 14.5839522,30.731415 L67.3492416,30.4793605 C66.2126629,27.0136122 64.4039831,24.3072313 62.6916236,22.3388571 C58.0051096,16.9474558 51.0154719,13.5991905 44.448573,13.5991905 Z" fill="#FFFFFF" fill-rule="nonzero"></path>
                    </g>
                    <g transform="translate(315.716292, 43.789116)" id="Shape">
                        <path d="M46.8116292,29.5127959 C45.3026124,23.9355578 42.3926713,17.3276735 36.8157303,13.3951973 L17.7903455,13.4891837 C15.6188596,13.500932 13.8080393,15.2364762 13.8123202,17.4013673 C13.8123202,17.4141837 13.8123202,17.428068 13.8123202,17.4408844 C13.8465674,24.1715918 17.0144326,29.6601837 20.8511882,29.6409592 L46.8116292,29.5127959 Z" fill="#83C1E9"></path>
                        <path d="M20.8319242,42.8439116 C9.36018539,42.8439116 0.653907303,31.951102 0.582202247,17.506034 C0.559727528,8.02836054 8.24715169,0.335360544 17.7197107,0.285163265 L40.990677,0.170884354 L44.4528539,2.61239456 C51.5537949,7.62037415 56.7861236,15.7331088 59.5869017,26.0694762 L64.5955534,46.4004422 L20.8319242,42.8439116 Z" fill="#FFFFFF" fill-rule="nonzero"></path>
                    </g>
                    <g transform="translate(0.000000, 76.897959)" id="Shape">
                        <path d="M51.8020871,14.0221293 C55.1465393,14.0061088 57.7386236,16.9367755 57.2987612,20.2476599 L54.8329635,38.8708503 C54.8490169,41.1297279 53.0221433,42.9645986 50.7575478,42.9827551 L18.225927,43.1173265 C15.9634719,43.1333469 14.1205449,41.3091565 14.1077022,39.0513469 L14.0060309,20.4281565 C13.9856966,16.9848367 16.7682809,14.1759252 20.2186854,14.1609728 L51.8020871,14.0221293 Z" fill="#223559"></path>
                        <path d="M18.2034522,56.3202789 C8.70413764,56.3202789 0.931095506,48.6080544 0.876514045,39.1250408 L0.775912921,20.4975782 C0.744876404,15.3101701 2.7451264,10.4164694 6.40529494,6.72323129 C10.0665337,3.03212925 14.944618,0.982585034 20.1491208,0.955884354 L51.7453652,0.819176871 C57.2313371,0.819176871 62.3684157,3.14320408 65.9290534,7.19957143 C69.4875506,11.2495306 71.1228539,16.640932 70.4154354,21.9832041 L68.0299045,39.9933469 C67.7709101,44.157585 66.0360758,48.042 63.0694129,51.0442245 C59.8137893,54.3326803 55.4665365,56.1568707 50.8335337,56.1835714 L18.2034522,56.3202789 Z" fill="#FFFFFF" fill-rule="nonzero"></path>
                    </g>
                    <path d="M21.9363961,88.1346735 L28.5728596,88.1004966 C31.1253455,88.0876803 33.1823174,86.0157075 33.1694747,83.4663265 L33.1148933,70.9757483 C33.1020506,68.4263673 31.0215337,66.3682789 28.4658371,66.3832313 L21.8379354,66.4184762 L21.9363961,88.1346735 Z" id="Shape" fill="#E55A56"></path>
                    <path d="M241.108787,47.0465986 C244.877048,47.0412585 246.462051,42.2458163 243.432244,40.0093673 C231.546329,31.2237755 217.942702,20.3843673 198.945143,20.4772857 C197.048705,20.486898 188.001025,20.4804898 170.516764,20.4751497 C168.348489,20.4751497 166.59225,22.2352585 166.599742,24.3990816 L166.694992,43.2753946 C166.705694,45.4274694 168.457652,47.1640816 170.613084,47.1608776 L241.108787,47.0465986 Z M98.9572584,47.2740884 L156.634879,47.1811701 C157.624837,47.1811701 158.423225,46.3769456 158.417874,45.3900884 L158.30443,22.2448707 C158.296938,21.2644218 157.500691,20.4730136 156.519295,20.4719456 L98.8395337,20.449517 C97.8495758,20.449517 97.0490478,21.2516054 97.0543989,22.2416667 L97.1699831,45.5022313 C97.1721236,46.4816122 97.9726517,47.2762245 98.9572584,47.2740884 Z M87.0991685,47.2933129 C88.0859157,47.2922449 88.887514,46.4880204 88.8821629,45.5022313 L88.7687191,22.216034 C88.7644382,21.235585 87.9649803,20.4431088 86.9835843,20.4420408 L62.0441376,20.4302925 C61.8889551,20.4302925 61.7423343,20.4452449 61.5925028,20.4804898 C53.6696292,22.413619 43.1086517,37.2367687 38.6351124,44.0134014 C37.6826124,45.4552381 38.7207303,47.3702109 40.4491433,47.3670068 L87.0991685,47.2933129 Z" id="Shape" fill="#83C1E9"></path>
                    <path d="M311.287702,156.806687 L311.285562,156.806687 C299.992551,156.804551 289.354517,152.438456 281.328902,144.50515 C264.647309,128.021218 264.513531,101.065279 281.028169,84.4168707 C289.088031,76.2945238 299.833087,71.8194898 311.287702,71.8194898 C322.580713,71.8194898 333.218747,76.185585 341.244362,84.1156871 C357.925955,100.598551 358.059733,127.55449 341.548306,144.206102 C333.486303,152.331653 322.740177,156.806687 311.287702,156.806687 Z" id="Shape" fill="#FFFFFF" fill-rule="nonzero"></path>
                    <path d="M90.3055618,156.806687 C79.0125506,156.804551 68.3734466,152.438456 60.3478315,144.507286 C43.6640983,128.018014 43.5324607,101.063143 60.050309,84.4136667 C68.1080309,76.2945238 78.8520169,71.8194898 90.3077022,71.8194898 C101.600713,71.8194898 112.238747,76.185585 120.265433,84.1178231 C136.945955,100.598551 137.081874,127.558762 120.565096,144.206102 C112.506303,152.331653 101.761247,156.806687 90.3055618,156.806687 Z" id="Shape" fill="#FFFFFF" fill-rule="nonzero"></path>
                    <g transform="translate(210.834270, 6.408163)" id="Shape">
                        <path d="M26.6239803,20.0223061 C23.2987921,18.1372381 19.6257809,16.1742041 15.4626067,14.1011633 C15.4593961,14.1000952 15.4593961,14.1000952 15.4572556,14.1000952 C15.4551152,14.1000952 13.9214831,15.4981429 14.0413483,15.8089388 C14.1601433,16.1218707 52.7717107,41.2408027 52.7717107,41.2408027 L57.7760815,40.3682245 C57.7760815,40.3682245 56.5988343,39.8747959 53.4052837,38.3325646 C46.1898287,32.9027143 36.7247612,25.9498571 26.6239803,20.0223061 Z" fill="#83C1E9"></path>
                        <path d="M49.9152809,55.1401088 L45.5476938,52.2991565 C45.5476938,52.2991565 35.8824944,46.0127483 26.2023118,39.6868231 C3.27595787,24.7002653 3.27595787,24.7002653 1.67490169,20.5007823 C0.0824073034,16.3183878 0.667820225,11.7482993 3.28880056,7.95787075 C5.51807865,4.73563265 9.4340309,0.895006803 15.4583258,0.895006803 L18.5748202,0.895006803 L21.3681067,2.28664626 C25.5312809,4.35648299 29.3883708,6.40389116 33.1598427,8.54101361 C43.2456404,14.4589524 52.4913118,21.1298503 60.3167949,26.9975918 C62.0023989,27.7996803 62.7836629,28.143585 62.9559691,28.2183469 L103.768989,45.7307891 L49.9152809,55.1401088 Z" fill="#FFFFFF" fill-rule="nonzero"></path>
                    </g>
                    <g transform="translate(327.488764, 71.557823)" id="Shape">
                        <path d="M31.3854101,41.4661565 L22.1622135,41.4661565 C17.4264691,41.4661565 13.5897135,37.6351429 13.5897135,32.9101905 L13.5897135,18.8859252 C13.5897135,16.2649864 15.7151798,14.1438844 18.3393708,14.1438844 L31.3854101,14.1438844 C36.1211545,14.1438844 39.9568399,17.975966 39.9568399,22.7019864 L39.9568399,32.9112585 C39.9568399,37.6351429 36.1211545,41.4661565 31.3854101,41.4661565 Z" fill="#223559"></path>
                        <path d="M31.3854101,54.6701769 L22.1622135,54.6701769 C10.1403792,54.6701769 0.359595506,44.9073401 0.359595506,32.9112585 L0.359595506,18.8869932 C0.359595506,8.98958503 8.42266854,0.940931973 18.3393708,0.940931973 L31.3854101,0.940931973 C43.4061742,0.940931973 53.1880281,10.7016327 53.1880281,22.7019864 L53.1880281,32.9112585 C53.1880281,44.9073401 43.4072444,54.6701769 31.3854101,54.6701769 Z" fill="#FFFFFF" fill-rule="nonzero"></path>
                    </g>
                    <g transform="translate(107.022472, 87.578231)" id="Shape">
                        <path d="M19.5005646,13.2830544 C21.5618174,18.8132993 22.3709073,25.0762109 21.3959326,31.8848844 L166.652183,31.165034 C166.652183,31.165034 166.388907,22.6560612 169.570685,13.2830544 L19.5005646,13.2830544 Z" fill="#223559"></path>
                        <path d="M6.13131742,45.1625986 L8.29745225,30.0190408 C8.90962079,25.7426599 8.50721629,21.6595918 7.09880056,17.8851837 L0.460196629,0.0779659864 L188.019219,0.0779659864 L182.099806,17.5188503 C179.781699,24.3478163 179.87802,30.7677279 179.87802,30.8307415 L180.133803,44.2205986 L166.717466,44.3658503 L6.13131742,45.1625986 Z" fill="#FFFFFF" fill-rule="nonzero"></path>
                    </g>
                </g>
                <g id="Group" transform="translate(195.000000, 148.000000)">
                    <path d="M350.186211,69.8992377 C350.186211,69.8992377 349.325275,42.8498852 329.977196,40.4349754 C310.62377,38.0189918 254.709952,33.2589672 254.709952,33.2589672 C254.709952,33.2589672 253.533517,32.7628852 250.342169,31.2123607 C234.642109,19.3225 208.270713,0.151401639 187.884163,0.252336066 C182.064018,0.280254098 86.4016677,0.758081967 53.2080181,0.923442623 C46.1943263,0.957803279 41.969855,0.979278689 41.969855,0.979278689 L18.9609245,1.04477869 C18.9609245,1.04477869 19.8518066,4.66768033 21.354435,6.78515574 C22.1469245,7.89758197 25.1072628,10.3436311 27.7414079,12.4181557 C20.5255831,22.3623443 9.41468882,42.9454508 9.41468882,42.9454508 C9.41468882,42.9454508 8.07996979,48.890918 8.10884592,54.6001557 C8.13665257,60.3126148 8.24574018,82.2411557 8.24574018,82.2411557 L38.0630211,82.0897541 C41.4511541,82.0747213 44.6585438,80.6133197 46.9312024,78.0878115 C51.7321269,72.7447295 61.7767432,63.8088115 75.8148218,62.9422787 C95.9671541,61.701 118.355782,80.0066393 114.616858,106.336566 L259.770761,105.610697 C259.770761,105.610697 258.425347,63.8582049 295.96432,63.2150164 C295.96432,63.2150164 313.588387,60.6272295 325.549523,74.6635574 C326.667136,75.9767787 328.284199,76.7595574 330.006073,76.7488197 L350.218296,76.6500328 L350.186211,69.8992377 Z" id="Shape" fill="#FFC711"></path>
                    <path d="M327.99116,76.1314016 C316.074943,59.7456639 295.963251,63.0679098 295.963251,63.0679098 C258.424278,63.7110984 259.769692,105.46359 259.769692,105.46359 L259.760066,105.46359 L259.760066,105.471107 L328.883112,98.5442131 C330.963263,98.5324016 332.716151,96.9765082 332.983523,94.9084262 L336.282888,76.5727213 L327.99116,76.1314016 Z" id="Shape" fill="#927400"></path>
                    <path d="M114.615789,106.31509 C118.355782,79.9851639 95.9660846,61.6827459 75.8137523,62.9250984 C61.6002779,63.8012951 51.4829366,72.9498197 46.7515287,78.2692787 C44.606139,80.6798934 41.5463384,82.0532459 38.3229063,82.0736475 L34.3978912,82.0908279 L33.7080725,106.710238 L114.615789,106.31509 Z" id="Shape" fill="#927400"></path>
                    <path d="M348.563801,59.9271311 C347.056894,54.3199016 344.147891,47.6764836 338.576937,43.7228607 L319.562538,43.8173525 C317.393619,43.8291639 315.581909,45.574041 315.587257,47.7505738 C315.587257,47.7623852 315.587257,47.777418 315.587257,47.7903033 C315.62148,54.5572049 318.786091,60.0742377 322.622338,60.0549098 L348.563801,59.9271311 Z" id="Shape" fill="#E55A56"></path>
                    <path d="M38.0533958,77.6389754 C41.3955408,77.6185738 43.9836979,80.5703689 43.5452085,83.9001311 L41.0811118,102.620246 C41.0971541,104.890197 39.2715408,106.742451 37.009577,106.753189 L4.50039879,106.892779 C2.23843505,106.906738 0.396779456,105.072738 0.383945619,102.800639 L0.283413897,84.0794508 C0.263093656,80.6176148 3.04375831,77.7957459 6.49178248,77.776418 L38.0533958,77.6389754 Z" id="Shape" fill="#223559"></path>
                    <path d="M8.20616918,74.8396557 L14.8369849,74.8052951 C17.3887795,74.7881148 19.4443323,72.705 19.4314985,70.1429836 L19.3769547,57.588459 C19.3630514,55.0232213 17.2850393,52.9551393 14.7311057,52.9680246 L8.10777644,53.003459 L8.20616918,74.8396557 Z" id="Shape" fill="#E55A56"></path>
                    <path d="M227.228429,33.5295574 C230.994091,33.5252623 232.575861,28.702959 229.550284,26.4544836 C217.670429,17.6227213 204.079396,6.72395082 185.092804,6.81951639 C183.197674,6.82810656 174.156236,6.82059016 156.685106,6.81629508 C154.518326,6.81629508 152.763299,8.58479508 152.770785,10.7613279 L152.86597,29.737 C152.876665,31.9017213 154.626344,33.6465984 156.78136,33.6455246 L227.228429,33.5295574 Z M85.1749668,33.7582705 L142.812798,33.6659262 C143.802073,33.6659262 144.599909,32.8563033 144.594562,31.8652131 L144.482266,8.59553279 C144.47371,7.60981148 143.679082,6.81307377 142.697293,6.81092623 L85.0573233,6.78730328 C84.0680483,6.78730328 83.2680725,7.59585246 83.2734199,8.59016393 L83.389994,31.9758115 C83.389994,32.9636803 84.1910393,33.760418 85.1749668,33.7582705 Z M73.3239879,33.7786721 C74.3111239,33.7786721 75.1110997,32.9690492 75.1057523,31.977959 L74.9923867,8.56868852 C74.9870393,7.58081967 74.1892024,6.78515574 73.2084834,6.78408197 L48.2862417,6.77227049 C48.1300967,6.77119672 47.983577,6.78730328 47.8349184,6.82166393 C39.9175106,8.76518852 29.3638187,23.6701967 24.8933656,30.4821967 C23.9404532,31.9317869 24.9789245,33.8549098 26.706145,33.8538361 L73.3239879,33.7786721 Z" id="Shape" fill="#83C1E9"></path>
                    <path d="M276.72319,122.084484 C288.234073,133.525508 306.803565,133.431016 318.201082,121.876172 C329.59432,110.31918 329.503414,91.6774508 317.99574,80.2321311 C306.48165,68.7911066 287.913227,68.8845246 276.517849,80.4415164 C265.121402,91.9985082 265.214447,110.639164 276.72319,122.084484 Z" id="Shape" fill="#223559"></path>
                    <path d="M301.639015,106.917475 C304.525559,103.987156 304.50203,99.2690082 301.58661,96.3698279 C298.667982,93.4706475 293.96652,93.492123 291.079976,96.4224426 C288.189154,99.3473934 288.214822,104.069836 291.130242,106.969016 C294.046731,109.86927 298.752471,109.845648 301.639015,106.917475 Z" id="Shape" fill="#E4C79D"></path>
                    <path d="M55.8934985,122.084484 C67.4054502,133.525508 85.9749426,133.431016 97.3703202,121.876172 C108.765698,110.31918 108.675861,91.6774508 97.1639094,80.2321311 C85.6540967,68.7911066 67.0846042,68.8845246 55.6892266,80.4415164 C44.29171,91.9985082 44.3868943,110.639164 55.8934985,122.084484 Z" id="Shape" fill="#223559"></path>
                    <path d="M80.8125317,106.917475 C83.700145,103.987156 83.6734079,99.2690082 80.7590574,96.3698279 C77.842568,93.4706475 73.1378973,93.492123 70.2513535,96.4224426 C67.3637402,99.3473934 67.3872689,104.069836 70.3026888,106.969016 C73.2181088,109.86927 77.9227795,109.845648 80.8125317,106.917475 Z" id="Shape" fill="#E4C79D"></path>
                    <path d="M223.579341,12.8036393 C220.256447,10.9073607 216.587039,8.93377049 212.427807,6.85172951 C212.424598,6.84958197 212.424598,6.8485082 212.42139,6.8485082 C212.419251,6.8485082 210.887746,8.25407377 211.007529,8.56868852 C211.126242,8.88222951 249.711172,34.1351639 249.711172,34.1351639 L254.711021,33.2589672 C254.711021,33.2589672 253.534586,32.7628852 250.343239,31.2123607 C243.132761,25.7543852 233.674224,18.7630656 223.579341,12.8036393 Z" id="Shape" fill="#83C1E9"></path>
                    <path d="M344.913644,99.8617295 L335.69681,99.8617295 C330.963263,99.8617295 327.129154,96.0111885 327.129154,91.2576066 L327.129154,77.1579262 C327.129154,74.5282623 329.253154,72.3925328 331.874465,72.3925328 L344.913644,72.3925328 C349.642912,72.3925328 353.47916,76.2452213 353.47916,80.995582 L353.47916,91.2576066 C353.47916,96.0111885 349.642912,99.8617295 344.913644,99.8617295 Z" id="Shape" fill="#223559"></path>
                    <path d="M112.720659,87.6325574 C114.781559,93.192541 115.589021,99.4891311 114.615789,106.336566 L259.769692,105.610697 C259.769692,105.610697 259.507668,97.0538197 262.687251,87.6325574 L112.720659,87.6325574 Z" id="Shape" fill="#223559"></path>
                </g>
                <g id="Group" transform="translate(506.000000, 102.000000)" fill="#FFFFFF" fill-rule="nonzero">
                    <path d="M6.156496,17.3164286 C3.997488,17.0967857 1.857776,16.3253571 0.204752,15.1360714 L2.18688,12.2057143 C3.597632,13.1967857 4.921552,13.7914286 6.28728,14.0121429 L6.28728,11.37 C2.737888,10.5535714 0.93264,9.34285714 0.93264,6.61071429 L0.93264,6.56678571 C0.93264,3.9675 2.826864,2.16 6.200448,1.91785714 L6.200448,0.662142857 L8.493456,0.662142857 L8.493456,1.98428571 C10.300848,2.18142857 11.820944,2.79857143 13.144864,3.70285714 L11.335328,6.65464286 C10.432704,6.01607143 9.373568,5.57464286 8.38304,5.3325 L8.38304,7.88892857 C11.887408,8.70321429 13.648704,9.96 13.648704,12.69 L13.648704,12.7339286 C13.648704,15.4221429 11.578672,17.0753571 8.449504,17.3614286 L8.449504,19.5203571 L6.156496,19.5203571 L6.156496,17.3164286 Z M6.310864,5.13428571 C5.229216,5.22321429 4.81328,5.66142857 4.81328,6.23571429 L4.81328,6.27964286 C4.81328,6.85178571 5.122016,7.18392857 6.310864,7.51285714 L6.310864,5.13428571 Z M9.836672,13.0210714 L9.836672,12.9771429 C9.836672,12.3814286 9.504352,12.0514286 8.3616,11.7214286 L8.3616,14.1439286 C9.372496,14.0335714 9.836672,13.6607143 9.836672,13.0210714 Z" id="Shape"></path>
                    <path d="M20.842896,17.3164286 C18.682816,17.0967857 16.544176,16.3253571 14.891152,15.1360714 L16.87328,12.2057143 C18.285104,13.1967857 19.607952,13.7914286 20.97368,14.0121429 L20.97368,11.37 C17.424288,10.5535714 15.61904,9.34285714 15.61904,6.61071429 L15.61904,6.56678571 C15.61904,3.9675 17.513264,2.16 20.885776,1.91785714 L20.885776,0.662142857 L23.178784,0.662142857 L23.178784,1.98428571 C24.987248,2.18142857 26.508416,2.79857143 27.831264,3.70285714 L26.021728,6.65464286 C25.119104,6.01607143 24.059968,5.57464286 23.068368,5.3325 L23.068368,7.88892857 C26.57488,8.70321429 28.336176,9.96 28.336176,12.69 L28.336176,12.7339286 C28.336176,15.4221429 26.265072,17.0753571 23.134832,17.3614286 L23.134832,19.5203571 L20.842896,19.5203571 L20.842896,17.3164286 Z M20.997264,5.13428571 C19.915616,5.22321429 19.49968,5.66142857 19.49968,6.23571429 L19.49968,6.27964286 C19.49968,6.85178571 19.807344,7.18392857 20.997264,7.51285714 L20.997264,5.13428571 Z M24.523072,13.0210714 L24.523072,12.9771429 C24.523072,12.3814286 24.190752,12.0514286 23.046928,11.7214286 L23.046928,14.1439286 C24.058896,14.0335714 24.523072,13.6607143 24.523072,13.0210714 Z" id="Shape"></path>
                    <path d="M36.504816,1.93928571 L43.117984,1.93928571 C47.020064,1.93928571 49.53176,3.945 49.53176,7.35964286 L49.53176,7.40357143 C49.53176,11.0378571 46.731696,12.9557143 42.897152,12.9557143 L40.779952,12.9557143 L40.779952,17.3614286 L36.504816,17.3614286 L36.504816,1.93928571 Z M42.809248,9.60642857 C44.330416,9.60642857 45.256624,8.8125 45.256624,7.60071429 L45.256624,7.55678571 C45.256624,6.23571429 44.330416,5.52964286 42.785664,5.52964286 L40.779952,5.52964286 L40.779952,9.60642857 L42.809248,9.60642857 Z" id="Shape"></path>
                    <polygon id="Shape" points="51.345584 1.93928571 63.753984 1.93928571 63.753984 5.57357143 55.576768 5.57357143 55.576768 7.91035714 62.983216 7.91035714 62.983216 11.28 55.576768 11.28 55.576768 13.7260714 63.8644 13.7260714 63.8644 17.3614286 51.344512 17.3614286 51.344512 1.93928571"></polygon>
                    <path d="M66.05664,1.93928571 L73.352672,1.93928571 C75.711072,1.93928571 77.342656,2.55642857 78.378208,3.61285714 C79.281904,4.49464286 79.745008,5.68285714 79.745008,7.20535714 L79.745008,7.24928571 C79.745008,9.60642857 78.488624,11.1696429 76.570816,11.985 L80.252064,17.3614286 L75.315504,17.3614286 L72.208848,12.69 L70.334992,12.69 L70.334992,17.3614286 L66.058784,17.3614286 L66.058784,1.93928571 L66.05664,1.93928571 Z M73.152208,9.34178571 C74.607984,9.34178571 75.44736,8.63678571 75.44736,7.51285714 L75.44736,7.46892857 C75.44736,6.25714286 74.565104,5.63892857 73.13184,5.63892857 L70.33392,5.63892857 L70.33392,9.34178571 L73.152208,9.34178571 Z" id="Shape"></path>
                    <path d="M88.02192,1.93928571 L93.972592,1.93928571 C99.483744,1.93928571 102.679376,5.11178571 102.679376,9.5625 L102.679376,9.60642857 C102.679376,14.0560714 99.439792,17.3614286 93.884688,17.3614286 L88.02192,17.3614286 L88.02192,1.93928571 Z M94.040128,13.5717857 C96.59792,13.5717857 98.292752,12.1617857 98.292752,9.67285714 L98.292752,9.62785714 C98.292752,7.16142857 96.59792,5.72892857 94.040128,5.72892857 L92.298128,5.72892857 L92.298128,13.5707143 L94.040128,13.5707143 L94.040128,13.5717857 Z" id="Shape"></path>
                    <path d="M109.12424,1.83 L113.24608,1.83 L119.815296,17.3614286 L115.231424,17.3614286 L114.105824,14.6067857 L108.15408,14.6067857 L107.050992,17.3614286 L102.556096,17.3614286 L109.12424,1.83 Z M112.869808,11.28 L111.151392,6.89571429 L109.409392,11.28 L112.869808,11.28 Z" id="Shape"></path>
                    <polygon id="Shape" points="123.34968 11.5885714 117.487984 1.93928571 122.35808 1.93928571 125.5312 7.55678571 128.727904 1.93928571 133.51224 1.93928571 127.647328 11.5232143 127.647328 17.3614286 123.348608 17.3614286 123.348608 11.5885714"></polygon>
                    <path d="M85.820032,41.5210714 L88.1988,38.6785714 C89.719968,39.8882143 91.418016,40.5278571 93.200752,40.5278571 C94.347792,40.5278571 94.965264,40.1314286 94.965264,39.4714286 L94.965264,39.4285714 C94.965264,38.7889286 94.45928,38.4353571 92.364592,37.9521429 C89.081056,37.2042857 86.544704,36.2775 86.544704,33.105 L86.544704,33.0610714 C86.544704,30.1982143 88.8152,28.1282143 92.516816,28.1282143 C95.141072,28.1282143 97.191808,28.8321429 98.866272,30.1767857 L96.728704,33.1928571 C95.317952,32.2028571 93.774272,31.6735714 92.408544,31.6735714 C91.372992,31.6735714 90.865936,32.1139286 90.865936,32.6646429 L90.865936,32.7085714 C90.865936,33.4125 91.39336,33.7221429 93.532,34.2064286 C97.081392,34.9778571 99.286496,36.1232143 99.286496,39.0085714 L99.286496,39.0525 C99.286496,42.2025 96.794096,44.0753571 93.047456,44.0753571 C90.314928,44.0753571 87.713184,43.2160714 85.820032,41.5210714 Z" id="Shape"></path>
                    <path d="M101.165712,37.0489286 L101.165712,28.3907143 L105.508384,28.3907143 L105.508384,36.96 C105.508384,39.1853571 106.632912,40.2417857 108.350256,40.2417857 C110.070816,40.2417857 111.195344,39.2282143 111.195344,37.0703571 L111.195344,28.3907143 L115.539088,28.3907143 L115.539088,36.9385714 C115.539088,41.9175 112.694,44.0989286 108.306304,44.0989286 C103.921824,44.0978571 101.165712,41.8735714 101.165712,37.0489286 Z" id="Shape"></path>
                    <polygon id="Shape" points="116.848 28.3907143 121.632336 28.3907143 125.136704 38.1492857 128.643216 28.3907143 133.337504 28.3907143 127.077024 43.9221429 123.110624 43.9221429"></polygon>
                </g>
                <g id="Group" transform="translate(588.000000, 250.000000)" fill="#FFFFFF" fill-rule="nonzero">
                    <path d="M52.7338148,29.1170741 C52.7338148,26.6262963 52.3525185,24.2171481 51.6500741,21.9562222 L40.9179259,49.8198519 C47.9896296,45.6374074 52.7338148,37.9352222 52.7338148,29.1170741 Z" id="Shape"></path>
                    <path d="M21.0937407,51.9153704 C23.4814074,52.7155556 26.0409259,53.1494815 28.7067778,53.1494815 C31.4918519,53.1494815 34.1577037,52.6768889 36.6431111,51.8047407 L29.3093333,32.7861111 L21.0937407,51.9153704 Z" id="Shape"></path>
                    <path d="M5.65392593,22.3235556 C5.01807407,24.4770741 4.67222222,26.7584074 4.67222222,29.1170741 C4.67222222,38.1231852 9.62907407,45.9725185 16.9574815,50.0808519 L5.73018519,22.4771481 L5.65392593,22.3235556 Z" id="Shape"></path>
                    <path d="M17.893,20.7747407 L16.8661852,20.7307037 C14.6106296,20.692037 14.863037,23.0302963 14.863037,23.0302963 L22.8530741,43.0671481 L28.2245185,30.2416296 L25.2267778,22.606037 C24.0238148,20.5867778 21.0926667,20.6114815 21.0926667,20.6114815 L21.0926667,19.5470741 L37.8933333,19.5470741 L37.8664815,20.7274815 L36.1232593,20.8381111 C33.9461111,20.8381111 34.3854074,22.9067778 34.3854074,22.9067778 L41.6740741,42.3797407 L43.7663704,36.9868148 C47.4708519,28.5864815 45.1884444,22.3643704 45.1884444,22.3643704 C41.4753704,14.7298519 46.1658519,13.6321481 46.1658519,13.6321481 C46.458,13.5891852 46.7361852,13.5666296 47.0100741,13.5558889 C42.6020741,8.37455556 36.0405556,5.09111111 28.7057037,5.09111111 C18.7952222,5.09111111 10.2831852,11.0941111 6.60662963,19.6673704 L17.8543333,19.5513704 L17.893,20.7747407 Z" id="Shape"></path>
                    <path d="M55.6993333,29.0397407 C55.6993333,43.9317778 43.5827037,56.0473333 28.6917407,56.0473333 C13.7932593,56.0473333 1.6777037,43.9328519 1.6777037,29.0397407 C1.6777037,14.1423333 13.7932593,2.03 28.6917407,2.03 C43.5827037,2.03 55.6993333,14.1423333 55.6993333,29.0397407 Z M28.6928148,0.786222222 C13.1144444,0.786222222 0.438222222,13.4613704 0.438222222,29.0418889 C0.438222222,44.6191852 13.1144444,57.2921852 28.6928148,57.2921852 C44.2668889,57.2921852 56.9334444,44.6191852 56.9334444,29.0418889 C56.9334444,13.4613704 44.2668889,0.786222222 28.6928148,0.786222222 Z" id="Shape"></path>
                </g>
                <path d="M636.578208,214 L635,212.520132 L640.314238,207.535591 C640.920809,206.964303 640.920809,206.035697 640.314238,205.463355 L635,200.479868 L636.578208,199 L641.887953,203.984541 C643.370682,205.370599 643.370682,207.629401 641.887953,209.015459 L636.578208,214 Z" id="Shape" fill="#FFFFFF" fill-rule="nonzero" opacity="0.5"></path>
                <path d="M133.421681,199 L135,200.479868 L129.686513,205.463355 C129.079899,206.034643 129.079899,206.963249 129.686513,207.535591 L135,212.520132 L133.421681,214 L128.11044,209.015459 C126.629853,207.629401 126.629853,205.370599 128.11044,203.984541 L133.421681,199 Z" id="Shape" fill="#FFFFFF" fill-rule="nonzero" opacity="0.5"></path>
            </g>
        </g>
    </g>
</svg>